<!-- Padding rund um das SVG hinzugefügt: aktuell 12px. Passe den Wert an, indem du die translate(...) und die viewBox/width/height entsprechend änderst. -->
<svg width="283.39" height="66" viewBox="0 0 283.39 66" data-name="Ebene 1" xmlns="http://www.w3.org/2000/svg">
  <g transform="translate(12,12)">
    <path d="M171.186 1.777c-.18-.863-.257-1.12-1.287-1.12h-1.48c-.812 0-.864.167-.864.888v2.653h1.79c.953 0 1.223-.245 1.39-1.108h.323v2.781h-.322c-.168-.927-.335-1.146-1.39-1.146h-1.79v4.481h-1.288V1.481c0-.966-.502-1.056-1.417-1.185V.103h6.657l.078 1.648zM175.706 3.824c-1.288 0-1.571 1.146-1.571 2.15v3.232h-1.094V4.275c0-.721-.412-.876-1.07-.927v-.232l2.164-.322v1.597c.296-.914.747-1.597 1.88-1.597h.129v1.172a1.584 1.584 0 0 0-.464-.103M177.972 5.344v.27a3.142 3.142 0 0 0 2.949 3.219 4.43 4.43 0 0 0 1.004-.167v.45a6.18 6.18 0 0 1-1.751.232 3.077 3.077 0 0 1-3.296-3.477c0-1.867.72-3.077 2.845-3.077a2.176 2.176 0 0 1 2.42 2.344v.206zm2.897-.593a1.288 1.288 0 0 0-1.287-1.442 1.52 1.52 0 0 0-1.546 1.571h2.82zM183.985 9.206v-4.97c0-.695-.45-.837-1.069-.888v-.232l2.15-.322v6.438zM188.324 9.348a6.193 6.193 0 0 1-1.815-.258v-.85a4.185 4.185 0 0 0 1.88.593c.798 0 1.468-.27 1.468-1.146 0-1.378-3.322-1.288-3.322-3.129 0-1.287 1.043-1.764 2.304-1.764a7.21 7.21 0 0 1 1.571.219v.811a3.863 3.863 0 0 0-1.712-.515c-.593 0-1.172.206-1.172.863 0 1.352 3.322 1.133 3.322 3.257 0 1.43-1.185 1.919-2.575 1.919M194.672 9.348c-1.66 0-2.021-.386-2.021-1.893V3.4h-1.095v-.463h1.095V1.79l1.068-.902v2.048h1.752v.463h-1.739v4.43c0 .785.464.991 1.198.991a2.472 2.472 0 0 0 .528-.064v.502a4.095 4.095 0 0 1-.799.077M200.17 9.206v-.862a2.575 2.575 0 0 1-1.995 1.004 1.57 1.57 0 0 1-1.726-1.52c0-1.776 2.318-1.97 3.696-2.008v-.567c0-.875 0-1.918-1.185-1.918-.811 0-1.133.476-1.172 1.197h-1.287c.077-1.287 1.287-1.712 2.472-1.712 1.648 0 2.227.682 2.227 2.189v4.223zm0-3.038c-.953 0-2.498.218-2.498 1.416a1.043 1.043 0 0 0 1.07 1.107c.913 0 1.428-.965 1.428-1.725zM206.377 9.206v-.862a2.575 2.575 0 0 1-2.01 1.004 1.558 1.558 0 0 1-1.622-1.52c0-1.776 2.318-1.97 3.696-2.008v-.567c0-.875 0-1.918-1.198-1.918-.81 0-1.12.476-1.158 1.197h-1.288c.09-1.287 1.288-1.712 2.472-1.712 1.648 0 2.228.682 2.228 2.189v4.223zm0-3.038c-.966 0-2.498.218-2.498 1.416a1.043 1.043 0 0 0 1.068 1.107c.902 0 1.43-.965 1.43-1.725zM211.398 9.348c-1.66 0-2.021-.386-2.021-1.893V3.4h-1.095v-.463h1.095V1.79l1.068-.902v2.048h1.751v.463h-1.725v4.43c0 .785.464.991 1.198.991a2.485 2.485 0 0 0 .54-.064v.502a4.3 4.3 0 0 1-.798.077M174.238 14.176a10.43 10.43 0 0 0-4.004-.952c-1.739 0-2.936.914-2.936 2.343 0 3.695 8.009 3.232 8.009 8.37 0 3.231-2.769 4.519-5.897 4.519a19.906 19.906 0 0 1-3.863-.464V26.37a10.674 10.674 0 0 0 4.223 1.03c2.125 0 3.386-.978 3.386-2.974 0-3.966-7.725-3.374-7.725-8.292 0-2.576 2.06-3.966 5.292-3.966a18.207 18.207 0 0 1 3.58.373zM181.449 15.18a3.76 3.76 0 0 0 .36-1.287c0-.605-.644-.811-1.867-1.094v-.4h4.172l6.258 15.774h-2.357l-2.008-5.202h-6.104l-1.918 5.227h-1.532zm-1.288 6.877h5.498l-2.743-7.147zM202.54 27.8a12.876 12.876 0 0 1-4.559.656c-4.558 0-7.03-3.863-7.03-8.678 0-4.262 1.48-7.61 6.438-7.61 3.657 0 4.97 1.841 5.15 3.438h-2.369a2.64 2.64 0 0 0-2.91-2.382c-2.575 0-3.94 2.356-3.94 5.948 0 3.335.683 8.228 6 8.228a11.485 11.485 0 0 0 3.22-.58zM206.505 15.09c0-1.609-.772-1.544-2.433-1.725v-.386l4.545-.54v7.145h7.095v-7.159h2.111v15.773h-2.111v-7.725h-7.095v7.725h-2.112zM229.695 14.176a10.43 10.43 0 0 0-4.004-.952c-1.739 0-2.923.914-2.923 2.343 0 3.695 7.996 3.232 7.996 8.37 0 3.231-2.769 4.519-5.898 4.519a19.584 19.584 0 0 1-3.862-.464V26.37a10.545 10.545 0 0 0 4.21 1.03c2.138 0 3.387-.978 3.387-2.974 0-3.966-7.726-3.374-7.726-8.292 0-2.576 2.06-3.966 5.292-3.966a18.026 18.026 0 0 1 3.58.373zM234.536 14.885c0-1.288-.334-1.777-2.446-2.06v-.4h11.434l.129 2.859h-.76c-.232-1.223-.206-1.944-2.228-1.944h-2.575c-1.39 0-1.48.283-1.48 1.545v4.622h3.077c2.008 0 2.176-.85 2.369-1.957h.605v4.854h-.566c-.245-1.287-.31-1.983-2.37-1.983h-3.077v5.511c0 1.288.206 1.288 1.983 1.288h2.575c1.635 0 1.764-.49 2.099-2.266h.747l-.103 3.244h-9.4zM248.043 15.194c0-1.88-.335-2.048-2.42-2.37v-.399h4.841l7.648 12.8v-12.8h1.288v15.773h-1.867l-8.176-13.764v13.764h-1.288zM184.513 1.558a.721.721 0 0 1-.76-.708.734.734 0 0 1 .76-.721.747.747 0 0 1 .747.72.721.721 0 0 1-.747.709"/>
    <path transform="translate(-101.128 -41.1) scale(1.2876)" d="M187.89 63.91a14.17 14.17 0 0 1-14.18-14.17V32h28.35v17.74a14.16 14.16 0 0 1-14.17 14.17" style="fill-rule:evenodd"/>
    <path transform="translate(-101.128 -41.1) scale(1.2876)" d="M176 56.82a13.81 13.81 0 0 1-1.34-3H190l2.62 3zM195.36 60l.74.85a13.81 13.81 0 0 1-17.45-.85zm-21.26-9.38v-3.01h10.52l2.61 3zm0-6.2v-3h5.12l2.62 3zm0-6.2v-2.7l2.35 2.7zm25.22 15.59h1.81a14.75 14.75 0 0 1-.92 2.25.66.66 0 0 0-.92 0 .52.52 0 0 0-.14.22.71.71 0 0 0-.92 0 .56.56 0 0 0-.21.6h-.71a1.22 1.22 0 0 1-.57-.35 1.2 1.2 0 0 1 .09-1.65.14.14 0 0 1 .2 0 .16.16 0 0 1 0 .12.82.82 0 0 1-.28.52l.09.1a.93.93 0 0 0 1.15.2.82.82 0 0 0 1.19-1 .91.91 0 0 0 .1-.94m-5.38-6.2h7.8v3.01H195a.69.69 0 0 0-.15-.7.66.66 0 0 0-1-.09.45.45 0 0 0-.15.22.7.7 0 0 0-.91 0 .59.59 0 0 0-.22.6h-.71a1.22 1.22 0 0 1-.57-.35 1.2 1.2 0 0 1 .09-1.65.14.14 0 0 1 .2 0 .14.14 0 0 1 0 .12.85.85 0 0 1-.27.52l.09.1a.92.92 0 0 0 1.15.2.85.85 0 0 0 1-.07.86.86 0 0 0 .2-1 .91.91 0 0 0 .11-.94m-5.39-6.2h13.19v3h-12.1a.72.72 0 0 0-1.12-.79.61.61 0 0 0-.15.22.7.7 0 0 0-.91-.05.59.59 0 0 0-.22.6h-.72a1.24 1.24 0 0 1-.56-.35 1.18 1.18 0 0 1 .09-1.64.15.15 0 0 1 .21 0 .17.17 0 0 1 0 .12.8.8 0 0 1-.27.52l.09.1a.92.92 0 0 0 1.15.2.81.81 0 0 0 1.18-1 .91.91 0 0 0 .11-.94m-5.39-6.2h18.58v3h-17.41a.65.65 0 0 0-.15-.7.66.66 0 0 0-1-.08.57.57 0 0 0-.15.21.7.7 0 0 0-.91 0 .59.59 0 0 0-.22.6h-.67a1.24 1.24 0 0 1-.56-.35 1.18 1.18 0 0 1 .09-1.64.14.14 0 0 1 .21 0 .14.14 0 0 1 0 .12.8.8 0 0 1-.27.52l.09.11a.93.93 0 0 0 1.15.19.81.81 0 0 0 1.18-1 .91.91 0 0 0 .11-.94" style="fill:#ffdc00;fill-rule:evenodd"/>
    <path transform="translate(-101.128 -41.1) scale(1.2876)" d="m198.6 51.93.17.19-.88.77-.17-.2zm-17.41-16.69a.49.49 0 0 0 0-.69.48.48 0 0 0-.68 0 .49.49 0 0 0-.05.69.5.5 0 0 0 .69.05m-.17-.19a.25.25 0 0 0 0-.34.24.24 0 1 0-.36.32.25.25 0 0 0 .33 0m-1.69-1.75.2-.17.76.88-.19.17zm2.88 3.31.19-.17-.76-.88-.2.17zm.4-3.08-.17-.2-.88.77.17.19zm3.33 7.17a.48.48 0 0 1 .68 0 .47.47 0 0 1-.05.68.482.482 0 1 1-.63-.73m.16.19a.23.23 0 0 1 .33 0 .24.24 0 0 1 0 .34.24.24 0 0 1-.33 0 .23.23 0 0 1 0-.33m1.5 1.92.19-.17-.76-.88-.2.17zm-2.88-3.31.19-.17.77.88-.2.17zm3.11 0 .17.2-.89.76-.04-.15zm4.13 8.1a.482.482 0 0 0-.63-.73.482.482 0 1 0 .63.73m-.16-.18a.24.24 0 0 0 0-.34.23.23 0 0 0-.33 0 .24.24 0 0 0 0 .33.25.25 0 0 0 .34 0m-1.69-1.75.19-.17.77.88-.2.17zM193 49l.2-.17-.76-.89-.2.17zm.41-3.08-.18-.2-.88.76.17.2zm3.32 7.17a.48.48 0 0 1 .69 0 .49.49 0 0 1-.05.68.47.47 0 0 1-.68 0 .48.48 0 0 1 0-.68m.17.19a.234.234 0 0 1 .31.35.24.24 0 0 1-.34 0 .24.24 0 0 1 0-.33m1.49 1.91.2-.16-.77-.89-.19.17zm-2.87-3.31.19-.17.77.89-.2.17zm4.55 4.44a.39.39 0 0 0-.69.2l-.27.08c-.2-.23-.48-.32-.65-.17s-.11.32 0 .51a1.53 1.53 0 0 1-1.93-.28 1.48 1.48 0 0 1 .12-2.06.44.44 0 0 1 .63 0 .46.46 0 0 1 .11.35 1.31 1.31 0 0 1-.17.48.61.61 0 0 0 .81-.06c.25.16.54.3.8.07s.17-.54.05-.8a.62.62 0 0 0 .16-.8 1.13 1.13 0 0 1-1.06-.06.34.34 0 0 1 0-.59 1.14 1.14 0 0 1 1.05.1.62.62 0 0 0-.05-.82c.16-.24.3-.53.07-.8s-.54-.16-.8 0a.62.62 0 0 0-.8-.17 1.15 1.15 0 0 1-.06 1.06.34.34 0 0 1-.59 0 1.18 1.18 0 0 1 .09-1.07.61.61 0 0 0-.81.06c-.25-.16-.54-.3-.8-.07s-.17.54 0 .8a.61.61 0 0 0-.17.8 1.19 1.19 0 0 1 .49-.1.46.46 0 0 1 .34.15.46.46 0 0 1-.05.64 1.5 1.5 0 0 1-2.06-.17 1.52 1.52 0 0 1 0-2c.17.15.29.27.51.08s.12-.44-.08-.67l.12-.25a.43.43 0 0 0 .27-.11.39.39 0 0 0 0-.55.4.4 0 0 0-.55-.06.4.4 0 0 0-.14.26l-.27.08c-.2-.23-.48-.32-.65-.17s-.11.32 0 .51a1.54 1.54 0 0 1-1.93-.27 1.49 1.49 0 0 1 .12-2.07.44.44 0 0 1 .63 0 .42.42 0 0 1 .11.35 1.15 1.15 0 0 1-.17.48.61.61 0 0 0 .82-.06c.24.16.53.3.79.07s.17-.54.05-.8a.63.63 0 0 0 .17-.8 1.17 1.17 0 0 1-1.07 0 .35.35 0 0 1 .05-.6 1.14 1.14 0 0 1 1 .1.62.62 0 0 0 0-.82c.16-.24.3-.53.07-.79s-.54-.17-.8-.05a.63.63 0 0 0-.8-.17 1.15 1.15 0 0 1-.06 1.06.34.34 0 0 1-.59 0 1.21 1.21 0 0 1 .09-1.07.62.62 0 0 0-.81.06c-.24-.16-.54-.3-.8-.07s-.16.54 0 .8a.61.61 0 0 0-.17.8 1.19 1.19 0 0 1 .49-.1.43.43 0 0 1 .34.16.45.45 0 0 1 0 .63 1.5 1.5 0 0 1-2.07-.17 1.52 1.52 0 0 1 0-1.95c.17.15.29.27.51.08s.12-.44-.08-.67l.12-.25a.4.4 0 0 0 .27-.11.4.4 0 1 0-.67-.35l-.26.08c-.2-.23-.49-.32-.66-.17s-.11.33 0 .51a1.48 1.48 0 0 1-1.81-2.34.44.44 0 0 1 .63 0 .45.45 0 0 1 .11.36 1.31 1.31 0 0 1-.16.47.6.6 0 0 0 .81-.06c.24.16.53.3.8.07s.16-.53 0-.8a.61.61 0 0 0 .17-.8 1.17 1.17 0 0 1-1.07 0 .34.34 0 0 1 0-.59 1.15 1.15 0 0 1 1.06.09.6.6 0 0 0-.06-.81c.16-.25.3-.54.07-.8s-.54-.17-.8 0a.63.63 0 0 0-.8-.17 1.17 1.17 0 0 1 0 1.07.34.34 0 0 1-.59 0 1.13 1.13 0 0 1 .09-1.06.62.62 0 0 0-.82 0c-.24-.16-.53-.3-.8-.07s-.16.54 0 .8a.62.62 0 0 0-.17.8 1.19 1.19 0 0 1 .49-.1.46.46 0 0 1 .34.16.45.45 0 0 1 0 .63 1.49 1.49 0 0 1-2.07-.17 1.51 1.51 0 0 1 0-2c.16.15.28.27.5.08s.12-.44-.07-.67l.11-.25a.4.4 0 0 0 .28-.11.41.41 0 0 0 0-.55.4.4 0 0 0-.55 0 .39.39 0 0 0-.15.25l-.26.08c-.2-.23-.49-.32-.66-.17s-.11.33 0 .51a1.48 1.48 0 0 1-1.93-.27 1.49 1.49 0 0 1 .11-2.07.47.47 0 0 1 .64 0 .48.48 0 0 1 .1.36 1.31 1.31 0 0 1-.16.47.61.61 0 0 0 .81 0c.24.15.54.29.8.06s.16-.53 0-.8a.61.61 0 0 0 .17-.8 1.15 1.15 0 0 1-1.06-.05.34.34 0 0 1 0-.59 1.15 1.15 0 0 1 1.06.09.6.6 0 0 0-.06-.81c.16-.25.3-.54.07-.8s-.53-.17-.8 0a.62.62 0 0 0-.8-.16 1.16 1.16 0 0 1-.05 1.06.34.34 0 0 1-.59 0 1.15 1.15 0 0 1 .09-1.06.61.61 0 0 0-.81.05c-.25-.16-.54-.3-.8-.07s-.17.54-.05.8a.63.63 0 0 0-.17.8 1.71 1.71 0 0 1 .49-.1.48.48 0 0 1 .34.16.45.45 0 0 1 0 .63 1.49 1.49 0 0 1-2.07-.17 1.51 1.51 0 0 1 0-1.95c.17.15.28.27.5.08s.14-.47-.14-.72h-3a1.92 1.92 0 0 0 2.07.17l.11.14.11.13a1.94 1.94 0 0 0 2.47 2.84l.11.12.12.14a1.93 1.93 0 0 0 2.46 2.83l.12.14.11.12a1.94 1.94 0 0 0 2.47 2.84l.22.26a1.94 1.94 0 0 0 2.43 2.7l.11.13.12.13a1.94 1.94 0 0 0 2.47 2.84l.22.26a1.94 1.94 0 0 0 2.47 2.84l.11.13.12.13a1.93 1.93 0 0 0 2.46 2.84l.12.13.11.13a1.94 1.94 0 0 0 2.47 2.84l.11.13.12.13a1.9 1.9 0 0 0-.36 1.06 13.94 13.94 0 0 0 1.6-2.33m-9.44-5.44-16.1-18.52h-.42l23.57 27.11.24-.25zm-16.52-16.89 22.77 26.2.58-.52-23.35-26.86zm22.54 26.4-22.54-25.93v.52l22.27 25.62.27-.21m-20-26.1a2.13 2.13 0 0 1 .15-1.37 2.18 2.18 0 0 1-1.38 0zm21.47 24.7V59a2.2 2.2 0 0 1 .18-1.22 2.11 2.11 0 0 1-1.38 0zm-2.61-3a2.17 2.17 0 0 1 .15-1.38 2.18 2.18 0 0 1-1.38 0zm-2.7-3.1a2.14 2.14 0 0 1 .16-1.37 2.17 2.17 0 0 1-1.38-.05zm-2.69-3.1a2.17 2.17 0 0 1 .15-1.38 2.11 2.11 0 0 1-1.38 0zm-2.7-3.1a2.14 2.14 0 0 1 .16-1.37 2.25 2.25 0 0 1-1.38 0zm-5.38-6.2a2.13 2.13 0 0 1 .15-1.37 2.18 2.18 0 0 1-1.38 0zm-2.7-3.1a2.21 2.21 0 0 1 .15-1.37 2.18 2.18 0 0 1-1.38 0zm5.39 6.2a2.14 2.14 0 0 1 .15-1.37 2.18 2.18 0 0 1-1.38 0z" style="fill:#008444;fill-rule:evenodd"/>
    <path d="M106.716 0h.644v42.002h-.644zM1.223 1.764C1.223.837 1.07.785 0 .579V.373h2.575c2.575 0 4.494.503 4.494 4.12S5.086 8.615 2.537 8.615H1.249zm1.069 5.46c0 .605 0 .914.644.914 1.97 0 2.948-1.082 2.948-3.644 0-2.1-.566-3.644-2.768-3.644-.734 0-.824.129-.824.914zM9.09 1.764c0-.837-.386-.798-1.223-.901V.657L10.16.373v8.241H9.09zM18.13 8.395a11.936 11.936 0 0 1-2.576.348c-2.51 0-3.644-1.687-3.644-4.571 0-2.344.76-3.863 3.335-3.863 1.829 0 2.73.811 2.807 1.828h-1.21A1.416 1.416 0 0 0 15.219.85c-1.905 0-2.111 1.944-2.111 3.283 0 2.06.656 4.12 3 4.12a3.18 3.18 0 0 0 .953-.102V5.575c0-.965-.18-1.056-1.288-1.287v-.206h2.292zM20.434 1.764c0-.837-.373-.798-1.287-.901V.657l2.292-.284v8.241h-1.07zM25.494.85h-1.107c-1.03 0-1.043.438-1.12 1.184h-.386V.374h6.154v1.66h-.373C28.585 1.288 28.585.85 27.529.85h-1.095v7.725h-1.068zM31.74 1.816a1.983 1.983 0 0 0 .192-.657c0-.322-.334-.438-.952-.58V.373h2.111l3.155 8.241H35.06l-1.03-2.73h-3.09l-.966 2.73h-.76zm-.619 3.592h2.782l-1.391-3.734zM37.56 1.764c0-.837-.387-.798-1.224-.901V.657l2.28-.284v6.683c0 1.004 0 1.082 1.003 1.082h1.095c.914 0 .953-.515 1.056-1.288h.373v1.816h-4.52zM44.924 1.816a2.292 2.292 0 0 0 .18-.657c0-.322-.334-.438-.94-.58V.373h2.1l3.154 8.241h-1.185l-1.03-2.73h-3.077l-.966 2.73h-.772zm-.63 3.592h2.78l-1.416-3.734zM56.281 8.395a11.936 11.936 0 0 1-2.575.348c-2.575 0-3.644-1.687-3.644-4.571 0-2.344.76-3.863 3.335-3.863 1.841 0 2.73.811 2.807 1.828h-1.21A1.416 1.416 0 0 0 53.37.85c-1.906 0-2.112 1.944-2.112 3.283 0 2.06.657 4.12 3 4.12a3.18 3.18 0 0 0 .953-.102V5.575c0-.965-.18-1.056-1.287-1.287v-.206h2.292zM58.534 1.661c0-.695-.167-.94-1.287-1.082V.373h5.768v1.494h-.373C62.513 1.223 62.526.85 61.509.85H60.22c-.708 0-.747.141-.747.811v2.408h1.545c1.018 0 1.108-.438 1.198-1.017h.283v2.575h-.103c-.116-.708-.154-1.043-1.197-1.043h-1.545v2.884c0 .708.103.708.991.708h1.288c.837 0 .9-.257 1.068-1.197h.374l-.078 1.674h-4.764zM65.243 1.816c0-.98-.18-1.07-1.288-1.288V.322h2.46l3.862 6.683V.373h.631v8.241h-.927L65.9 1.391v7.184h-.63zM74.887.85h-1.095c-1.03 0-1.055.438-1.133 1.184h-.373V.374h6.167v1.66h-.373C78.003 1.288 78.003.85 76.947.85h-1.094v7.725h-1.07zM85.574 5.562c0 1.507 0 3.18-2.756 3.18s-2.832-1.428-2.832-3.128V1.75c0-.837-.387-.798-1.224-.901V.644L81.054.36V5.6c0 .889 0 2.653 1.777 2.653 2.022 0 2.022-1.404 2.022-2.576V.373h.72zM87.84 1.674c0-.863-.193-.889-1.288-1.095V.373h3.464c1.494 0 2.73.348 2.73 2.112 0 1.404-1.043 1.854-2.112 1.996l2.472 4.133h-1.094l-2.447-4.056h-.605v4.056h-1.068zm1.069 2.408h.335c.862 0 2.356 0 2.356-1.713 0-1.159-.863-1.52-1.829-1.52s-.862.104-.862.825zM49.598 16.739a5.073 5.073 0 0 0-2.008-.502c-.889 0-1.481.476-1.481 1.223 0 1.931 4.03 1.7 4.03 4.378 0 1.686-1.39 2.356-2.974 2.356a9.36 9.36 0 0 1-1.957-.245v-.837a5.292 5.292 0 0 0 2.137.528c1.069 0 1.713-.515 1.713-1.545 0-2.073-3.863-1.764-3.863-4.339 0-1.288 1.03-2.06 2.665-2.06a8.511 8.511 0 0 1 1.803.193zM53.204 17.267a2.292 2.292 0 0 0 .18-.657c0-.322-.335-.438-.94-.58v-.205h2.099l3.154 8.24h-1.184l-1.03-2.73h-3.078l-.965 2.73h-.773zm-.631 3.592h2.78l-1.39-3.734zM64.328 23.86a6.438 6.438 0 0 1-2.291.334c-2.305 0-3.554-2.047-3.554-4.532 0-2.228.747-3.966 3.257-3.966 1.842 0 2.576.966 2.576 1.79h-1.198a1.288 1.288 0 0 0-1.468-1.288c-1.287 0-1.983 1.288-1.983 3.116s.348 4.288 3.026 4.288a6 6 0 0 0 1.623-.296zM65.938 17.215c0-.837-.4-.798-1.223-.901v-.206l2.279-.283v3.734h3.592v-3.734h1.069v8.24h-1.069v-4.03h-3.592v4.03h-1.056zM77.758 16.739a5.15 5.15 0 0 0-2.021-.502c-.876 0-1.481.476-1.481 1.223 0 1.931 4.043 1.7 4.043 4.378 0 1.686-1.39 2.356-2.974 2.356a9.36 9.36 0 0 1-1.958-.245v-.837a5.292 5.292 0 0 0 2.138.528c1.069 0 1.712-.515 1.712-1.545 0-2.073-3.94-1.764-3.94-4.339 0-1.288 1.043-2.06 2.679-2.06a8.627 8.627 0 0 1 1.802.193zM80.024 17.112c0-.695-.167-.94-1.287-1.081v-.206h5.781v1.493h-.232c-.128-.644-.116-1.017-1.133-1.017h-1.287c-.709 0-.747.142-.747.811v2.408h1.545c1.017 0 1.107-.438 1.21-1.017h.27v2.575h-.27c-.128-.708-.167-1.043-1.21-1.043h-1.545v2.884c0 .708.103.708 1.004.708h1.288c.837 0 .901-.257 1.068-1.197h.374l-.077 1.674h-4.752zM86.694 17.267c0-.979-.18-1.069-1.287-1.288v-.206h2.446l3.863 6.683v-6.631h.644v8.24h-.94l-4.07-7.223v7.185h-.63z"/>
  </g>
</svg>
